<?xml version="1.0" encoding="UTF-8" standalone="no"?>
<!-- Created with Inkscape (http://www.inkscape.org/) -->

<svg
   version="1.1"
   id="svg2"
   width="5333.3335"
   height="5333.3335"
   viewBox="0 0 5333.3335 5333.3335"
   sodipodi:docname="vecteezy_abstract-sk-letters-initials-monogram-logo-design-icon_17373190.eps"
   xmlns:inkscape="http://www.inkscape.org/namespaces/inkscape"
   xmlns:sodipodi="http://sodipodi.sourceforge.net/DTD/sodipodi-0.dtd"
   xmlns="http://www.w3.org/2000/svg"
   xmlns:svg="http://www.w3.org/2000/svg">
  <defs
     id="defs6" />
  <sodipodi:namedview
     id="namedview4"
     pagecolor="#ffffff"
     bordercolor="#000000"
     borderopacity="0.25"
     inkscape:showpageshadow="2"
     inkscape:pageopacity="0.0"
     inkscape:pagecheckerboard="0"
     inkscape:deskcolor="#d1d1d1" />
  <g
     id="g8"
     inkscape:groupmode="layer"
     inkscape:label="ink_ext_XXXXXX"
     transform="matrix(1.3333333,0,0,-1.3333333,0,5333.3333)">
    <g
       id="g10"
       transform="scale(0.1)">
      <path
         d="m 13333.3,13679.2 c -2369.2,985.1 -3919.37,2986.6 -3919.37,5584.7 h -96.57 v -5605.7 h 96.57 c 161.77,583.9 518.84,745.6 924.17,745.6 619.7,0 1703.5,-472.6 2995.2,-724.6 v 0"
         style="fill:#EEEEEE;fill-opacity:1;fill-rule:evenodd;stroke:none"
         id="path12" />
      <path
         d="m 15635.4,21889.3 c -1247.7,281.3 -2697,464.1 -3201,1848.2 -407.5,1115.2 138.6,2268.3 1321.1,2734.6 -1464,-140.8 -3360.6,-1067 -4049.58,-2283.1 -323.42,-567 -485.2,-1213.9 -485.2,-1831.4 0,-1529 835.98,-2472 2121.38,-3165.2 1653,-829.6 4851.9,-875.8 5242.6,-2871.1 260.5,-1342 -512.5,-2417.4 -1791.6,-2793.4 2650.7,0 5303.5,0 7954.2,0 v 100.8 h -81.9 c -1554.3,0 -1720.2,495.7 -1720.2,1917.6 v 4230 l 2495.2,-3866.6 c 331.9,-529.3 695.2,-1190.9 695.2,-1636.1 0,-298.3 -231,-644.9 -827.5,-644.9 h -81.9 v -100.8 h 7555.1 v 100.8 h -33.6 c -1388.3,0 -1636.2,479 -2331.4,1520.7 L 23327,22826 c -796,-762.5 -1587.9,-1524.9 -2381.8,-2289.4 v 3917.1 c 0,1421.9 199.5,1917.5 1686.6,1917.5 h 115.5 v 100.9 h -7555.2 v -100.9 h 100.9 c 1751.7,0 1867.2,-495.6 1867.2,-1917.5 v -2541.4 c 922.1,-430.5 1745.5,-1073.2 2037.4,-2173.8 -163.8,310.9 -369.7,573.4 -600.7,800.2 -821.2,800.2 -1873.6,1102.7 -2961.5,1350.6 v 0"
         style="fill:#EEEEEE;fill-opacity:1;fill-rule:evenodd;stroke:none"
         id="path14" />
      <path
         d="m 25011.5,25264.4 c 0,-399 -174.3,-772.9 -472.6,-1165.7 1669.9,1533.2 3337.5,2281 4620.9,2272.5 v 100.9 h -5570.3 v -100.9 c 1157.4,-14.7 1422,-544 1422,-1106.8 v 0"
         style="fill:#EEEEEE;fill-opacity:1;fill-rule:evenodd;stroke:none"
         id="path16" />
    </g>
  </g>
</svg>
